<svg width="33" height="33" viewBox="0 0 33 33" fill="none" xmlns="http://www.w3.org/2000/svg">
<path fill-rule="evenodd" clip-rule="evenodd" d="M16.0621 29.697C19.47 29.697 22.7384 28.3431 25.1482 25.9334C27.558 23.5236 28.9118 20.2552 28.9118 16.8473C28.9118 13.4393 27.558 10.1709 25.1482 7.76115C22.7384 5.35136 19.47 3.99756 16.0621 3.99756C12.6541 3.99756 9.38578 5.35136 6.97599 7.76115C4.56621 10.1709 3.2124 13.4393 3.2124 16.8473C3.2124 20.2552 4.56621 23.5236 6.97599 25.9334C9.38578 28.3431 12.6541 29.697 16.0621 29.697V29.697ZM22.0163 14.7704C22.3089 14.4675 22.4708 14.0618 22.4671 13.6406C22.4635 13.2195 22.2946 12.8166 21.9968 12.5188C21.699 12.221 21.2961 12.0521 20.875 12.0484C20.4538 12.0448 20.0481 12.2067 19.7451 12.4992L14.4559 17.7885L12.3791 15.7117C12.0761 15.4191 11.6704 15.2572 11.2492 15.2608C10.8281 15.2645 10.4252 15.4334 10.1274 15.7312C9.82963 16.029 9.66071 16.4319 9.65705 16.853C9.65339 17.2742 9.81529 17.6799 10.1079 17.9828L13.3203 21.1953C13.6215 21.4964 14.03 21.6655 14.4559 21.6655C14.8818 21.6655 15.2903 21.4964 15.5915 21.1953L22.0163 14.7704V14.7704Z" fill="#01AB31"/>
</svg>
