<svg width="46" height="24" viewBox="0 0 46 24" fill="none" xmlns="http://www.w3.org/2000/svg">
<rect x="0.5" y="0.5" width="45" height="23" rx="11.5" fill="#EBFBFE"/>
<rect x="0.5" y="0.5" width="45" height="23" rx="11.5" stroke="#0EB4D3"/>
<path d="M17.5 16H16.408L12.016 9.34V16H10.924V7.624H12.016L16.408 14.272V7.624H17.5V16ZM25.3615 12.46C25.3615 12.668 25.3495 12.888 25.3255 13.12H20.0695C20.1095 13.768 20.3295 14.276 20.7295 14.644C21.1375 15.004 21.6295 15.184 22.2055 15.184C22.6775 15.184 23.0695 15.076 23.3815 14.86C23.7015 14.636 23.9255 14.34 24.0535 13.972H25.2295C25.0535 14.604 24.7015 15.12 24.1735 15.52C23.6455 15.912 22.9895 16.108 22.2055 16.108C21.5815 16.108 21.0215 15.968 20.5255 15.688C20.0375 15.408 19.6535 15.012 19.3735 14.5C19.0935 13.98 18.9535 13.38 18.9535 12.7C18.9535 12.02 19.0895 11.424 19.3615 10.912C19.6335 10.4 20.0135 10.008 20.5015 9.736C20.9975 9.456 21.5655 9.316 22.2055 9.316C22.8295 9.316 23.3815 9.452 23.8615 9.724C24.3415 9.996 24.7095 10.372 24.9655 10.852C25.2295 11.324 25.3615 11.86 25.3615 12.46ZM24.2335 12.232C24.2335 11.816 24.1415 11.46 23.9575 11.164C23.7735 10.86 23.5215 10.632 23.2015 10.48C22.8895 10.32 22.5415 10.24 22.1575 10.24C21.6055 10.24 21.1335 10.416 20.7415 10.768C20.3575 11.12 20.1375 11.608 20.0815 12.232H24.2335ZM35.5629 9.424L33.5109 16H32.3829L30.7989 10.78L29.2149 16H28.0869L26.0229 9.424H27.1389L28.6509 14.944L30.2829 9.424H31.3989L32.9949 14.956L34.4829 9.424H35.5629Z" fill="#0B87AC"/>
</svg>
