<svg width="163" height="164" viewBox="0 0 163 164" fill="none" xmlns="http://www.w3.org/2000/svg">
<g filter="url(#filter0_d_1_788)">
<rect x="22.4445" y="19" width="101.852" height="101.852" rx="30.5556" fill="#FFBA00"/>
<mask id="path-2-inside-1_1_788" fill="white">
<path d="M65.7963 69.1736C65.7963 68.6561 66.2163 68.2361 66.7338 68.2361H67.6713C68.7063 68.2361 69.5463 69.0761 69.5463 70.1111V82.2986C69.5463 82.8161 69.1263 83.2361 68.6088 83.2361C68.0913 83.2361 67.6713 82.8161 67.6713 82.2986V70.1111H66.7338C66.2163 70.1111 65.7963 69.6911 65.7963 69.1736ZM76.1088 70.1111H77.0463V82.2986C77.0463 82.8161 77.4663 83.2361 77.9838 83.2361C78.5013 83.2361 78.9213 82.8161 78.9213 82.2986V70.1111C78.9213 69.0761 78.0813 68.2361 77.0463 68.2361H76.1088C75.5913 68.2361 75.1713 68.6561 75.1713 69.1736C75.1713 69.6911 75.5913 70.1111 76.1088 70.1111ZM99.5463 55.1111V90.7361C99.5463 93.843 97.0282 96.3611 93.9213 96.3611H52.6713C49.5645 96.3611 47.0463 93.843 47.0463 90.7361V55.1111C47.0463 52.0042 49.5645 49.4861 52.6713 49.4861H54.5463V47.6111C54.5463 45.5392 56.2245 43.8611 58.2963 43.8611C60.3682 43.8611 62.0463 45.5392 62.0463 47.6111V49.4861H84.5463V47.6111C84.5463 45.5392 86.2244 43.8611 88.2963 43.8611C90.3682 43.8611 92.0463 45.5392 92.0463 47.6111V49.4861H93.9213C97.0282 49.4861 99.5463 52.0042 99.5463 55.1111ZM86.4213 53.2361C86.4213 54.2692 87.2632 55.1111 88.2963 55.1111C89.3295 55.1111 90.1713 54.2692 90.1713 53.2361V47.6111C90.1713 46.578 89.3295 45.7361 88.2963 45.7361C87.2632 45.7361 86.4213 46.578 86.4213 47.6111V53.2361ZM56.4213 53.2361C56.4213 54.2692 57.2632 55.1111 58.2963 55.1111C59.3295 55.1111 60.1713 54.2692 60.1713 53.2361V47.6111C60.1713 46.578 59.3295 45.7361 58.2963 45.7361C57.2632 45.7361 56.4213 46.578 56.4213 47.6111V53.2361ZM97.6263 91.1898C96.6344 92.0636 95.3463 92.6111 93.9213 92.6111H52.6713C51.2463 92.6111 49.9582 92.0636 48.9663 91.1898C49.1932 93.0405 50.7588 94.4861 52.6713 94.4861H93.9213C95.8338 94.4861 97.3995 93.0405 97.6263 91.1898ZM97.6713 62.6111H48.9213V86.9861C48.9213 89.0542 50.6032 90.7361 52.6713 90.7361H93.9213C95.9895 90.7361 97.6713 89.0542 97.6713 86.9861V62.6111ZM97.6713 55.1111C97.6713 53.043 95.9895 51.3611 93.9213 51.3611H92.0463V53.2361C92.0463 55.308 90.3682 56.9861 88.2963 56.9861C86.2244 56.9861 84.5463 55.308 84.5463 53.2361V51.3611H62.0463V53.2361C62.0463 55.308 60.3682 56.9861 58.2963 56.9861C56.2245 56.9861 54.5463 55.308 54.5463 53.2361V51.3611H52.6713C50.6032 51.3611 48.9213 53.043 48.9213 55.1111V60.7361H97.6713V55.1111Z"/>
</mask>
<path d="M65.7963 69.1736C65.7963 68.6561 66.2163 68.2361 66.7338 68.2361H67.6713C68.7063 68.2361 69.5463 69.0761 69.5463 70.1111V82.2986C69.5463 82.8161 69.1263 83.2361 68.6088 83.2361C68.0913 83.2361 67.6713 82.8161 67.6713 82.2986V70.1111H66.7338C66.2163 70.1111 65.7963 69.6911 65.7963 69.1736ZM76.1088 70.1111H77.0463V82.2986C77.0463 82.8161 77.4663 83.2361 77.9838 83.2361C78.5013 83.2361 78.9213 82.8161 78.9213 82.2986V70.1111C78.9213 69.0761 78.0813 68.2361 77.0463 68.2361H76.1088C75.5913 68.2361 75.1713 68.6561 75.1713 69.1736C75.1713 69.6911 75.5913 70.1111 76.1088 70.1111ZM99.5463 55.1111V90.7361C99.5463 93.843 97.0282 96.3611 93.9213 96.3611H52.6713C49.5645 96.3611 47.0463 93.843 47.0463 90.7361V55.1111C47.0463 52.0042 49.5645 49.4861 52.6713 49.4861H54.5463V47.6111C54.5463 45.5392 56.2245 43.8611 58.2963 43.8611C60.3682 43.8611 62.0463 45.5392 62.0463 47.6111V49.4861H84.5463V47.6111C84.5463 45.5392 86.2244 43.8611 88.2963 43.8611C90.3682 43.8611 92.0463 45.5392 92.0463 47.6111V49.4861H93.9213C97.0282 49.4861 99.5463 52.0042 99.5463 55.1111ZM86.4213 53.2361C86.4213 54.2692 87.2632 55.1111 88.2963 55.1111C89.3295 55.1111 90.1713 54.2692 90.1713 53.2361V47.6111C90.1713 46.578 89.3295 45.7361 88.2963 45.7361C87.2632 45.7361 86.4213 46.578 86.4213 47.6111V53.2361ZM56.4213 53.2361C56.4213 54.2692 57.2632 55.1111 58.2963 55.1111C59.3295 55.1111 60.1713 54.2692 60.1713 53.2361V47.6111C60.1713 46.578 59.3295 45.7361 58.2963 45.7361C57.2632 45.7361 56.4213 46.578 56.4213 47.6111V53.2361ZM97.6263 91.1898C96.6344 92.0636 95.3463 92.6111 93.9213 92.6111H52.6713C51.2463 92.6111 49.9582 92.0636 48.9663 91.1898C49.1932 93.0405 50.7588 94.4861 52.6713 94.4861H93.9213C95.8338 94.4861 97.3995 93.0405 97.6263 91.1898ZM97.6713 62.6111H48.9213V86.9861C48.9213 89.0542 50.6032 90.7361 52.6713 90.7361H93.9213C95.9895 90.7361 97.6713 89.0542 97.6713 86.9861V62.6111ZM97.6713 55.1111C97.6713 53.043 95.9895 51.3611 93.9213 51.3611H92.0463V53.2361C92.0463 55.308 90.3682 56.9861 88.2963 56.9861C86.2244 56.9861 84.5463 55.308 84.5463 53.2361V51.3611H62.0463V53.2361C62.0463 55.308 60.3682 56.9861 58.2963 56.9861C56.2245 56.9861 54.5463 55.308 54.5463 53.2361V51.3611H52.6713C50.6032 51.3611 48.9213 53.043 48.9213 55.1111V60.7361H97.6713V55.1111Z" fill="black"/>
<path d="M67.6713 70.1111H70.6713V67.1111H67.6713V70.1111ZM77.0463 70.1111H80.0463V67.1111H77.0463V70.1111ZM54.5463 49.4861V52.4861H57.5463V49.4861H54.5463ZM62.0463 49.4861H59.0463V52.4861H62.0463V49.4861ZM84.5463 49.4861V52.4861H87.5463V49.4861H84.5463ZM92.0463 49.4861H89.0463V52.4861H92.0463V49.4861ZM97.6263 91.1898L100.604 91.5549L101.564 83.723L95.6433 88.9387L97.6263 91.1898ZM48.9663 91.1898L50.9494 88.9387L45.0285 83.723L45.9886 91.5549L48.9663 91.1898ZM97.6713 62.6111H100.671V59.6111H97.6713V62.6111ZM48.9213 62.6111V59.6111H45.9213V62.6111H48.9213ZM92.0463 51.3611V48.3611H89.0463V51.3611H92.0463ZM84.5463 51.3611H87.5463V48.3611H84.5463V51.3611ZM62.0463 51.3611V48.3611H59.0463V51.3611H62.0463ZM54.5463 51.3611H57.5463V48.3611H54.5463V51.3611ZM48.9213 60.7361H45.9213V63.7361H48.9213V60.7361ZM97.6713 60.7361V63.7361H100.671V60.7361H97.6713ZM68.7963 69.1736C68.7963 70.3129 67.8732 71.2361 66.7338 71.2361V65.2361C64.5595 65.2361 62.7963 66.9992 62.7963 69.1736H68.7963ZM66.7338 71.2361H67.6713V65.2361H66.7338V71.2361ZM67.6713 71.2361C67.0495 71.2361 66.5463 70.7329 66.5463 70.1111H72.5463C72.5463 67.4192 70.3632 65.2361 67.6713 65.2361V71.2361ZM66.5463 70.1111V82.2986H72.5463V70.1111H66.5463ZM66.5463 82.2986C66.5463 81.1592 67.4695 80.2361 68.6088 80.2361V86.2361C70.7832 86.2361 72.5463 84.4729 72.5463 82.2986H66.5463ZM68.6088 80.2361C69.7482 80.2361 70.6713 81.1592 70.6713 82.2986H64.6713C64.6713 84.4729 66.4345 86.2361 68.6088 86.2361V80.2361ZM70.6713 82.2986V70.1111H64.6713V82.2986H70.6713ZM67.6713 67.1111H66.7338V73.1111H67.6713V67.1111ZM66.7338 67.1111C67.8732 67.1111 68.7963 68.0342 68.7963 69.1736H62.7963C62.7963 71.3479 64.5595 73.1111 66.7338 73.1111V67.1111ZM76.1088 73.1111H77.0463V67.1111H76.1088V73.1111ZM74.0463 70.1111V82.2986H80.0463V70.1111H74.0463ZM74.0463 82.2986C74.0463 84.4729 75.8095 86.2361 77.9838 86.2361V80.2361C79.1232 80.2361 80.0463 81.1592 80.0463 82.2986H74.0463ZM77.9838 86.2361C80.1582 86.2361 81.9213 84.4729 81.9213 82.2986H75.9213C75.9213 81.1592 76.8445 80.2361 77.9838 80.2361V86.2361ZM81.9213 82.2986V70.1111H75.9213V82.2986H81.9213ZM81.9213 70.1111C81.9213 67.4192 79.7382 65.2361 77.0463 65.2361V71.2361C76.4245 71.2361 75.9213 70.7329 75.9213 70.1111H81.9213ZM77.0463 65.2361H76.1088V71.2361H77.0463V65.2361ZM76.1088 65.2361C73.9345 65.2361 72.1713 66.9992 72.1713 69.1736H78.1713C78.1713 70.3129 77.2482 71.2361 76.1088 71.2361V65.2361ZM72.1713 69.1736C72.1713 71.3479 73.9345 73.1111 76.1088 73.1111V67.1111C77.2482 67.1111 78.1713 68.0342 78.1713 69.1736H72.1713ZM96.5463 55.1111V90.7361H102.546V55.1111H96.5463ZM96.5463 90.7361C96.5463 92.1861 95.3713 93.3611 93.9213 93.3611V99.3611C98.6851 99.3611 102.546 95.4998 102.546 90.7361H96.5463ZM93.9213 93.3611H52.6713V99.3611H93.9213V93.3611ZM52.6713 93.3611C51.2213 93.3611 50.0463 92.1861 50.0463 90.7361H44.0463C44.0463 95.4998 47.9076 99.3611 52.6713 99.3611V93.3611ZM50.0463 90.7361V55.1111H44.0463V90.7361H50.0463ZM50.0463 55.1111C50.0463 53.6611 51.2213 52.4861 52.6713 52.4861V46.4861C47.9076 46.4861 44.0463 50.3474 44.0463 55.1111H50.0463ZM52.6713 52.4861H54.5463V46.4861H52.6713V52.4861ZM57.5463 49.4861V47.6111H51.5463V49.4861H57.5463ZM57.5463 47.6111C57.5463 47.1961 57.8813 46.8611 58.2963 46.8611V40.8611C54.5676 40.8611 51.5463 43.8824 51.5463 47.6111H57.5463ZM58.2963 46.8611C58.7113 46.8611 59.0463 47.1961 59.0463 47.6111H65.0463C65.0463 43.8824 62.0251 40.8611 58.2963 40.8611V46.8611ZM59.0463 47.6111V49.4861H65.0463V47.6111H59.0463ZM62.0463 52.4861H84.5463V46.4861H62.0463V52.4861ZM87.5463 49.4861V47.6111H81.5463V49.4861H87.5463ZM87.5463 47.6111C87.5463 47.1961 87.8813 46.8611 88.2963 46.8611V40.8611C84.5676 40.8611 81.5463 43.8824 81.5463 47.6111H87.5463ZM88.2963 46.8611C88.7113 46.8611 89.0463 47.1961 89.0463 47.6111H95.0463C95.0463 43.8824 92.0251 40.8611 88.2963 40.8611V46.8611ZM89.0463 47.6111V49.4861H95.0463V47.6111H89.0463ZM92.0463 52.4861H93.9213V46.4861H92.0463V52.4861ZM93.9213 52.4861C95.3713 52.4861 96.5463 53.6611 96.5463 55.1111H102.546C102.546 50.3474 98.6851 46.4861 93.9213 46.4861V52.4861ZM83.4213 53.2361C83.4213 55.9261 85.6063 58.1111 88.2963 58.1111V52.1111C88.9201 52.1111 89.4213 52.6124 89.4213 53.2361H83.4213ZM88.2963 58.1111C90.9863 58.1111 93.1713 55.9261 93.1713 53.2361H87.1713C87.1713 52.6124 87.6726 52.1111 88.2963 52.1111V58.1111ZM93.1713 53.2361V47.6111H87.1713V53.2361H93.1713ZM93.1713 47.6111C93.1713 44.9211 90.9863 42.7361 88.2963 42.7361V48.7361C87.6726 48.7361 87.1713 48.2348 87.1713 47.6111H93.1713ZM88.2963 42.7361C85.6063 42.7361 83.4213 44.9211 83.4213 47.6111H89.4213C89.4213 48.2348 88.9201 48.7361 88.2963 48.7361V42.7361ZM83.4213 47.6111V53.2361H89.4213V47.6111H83.4213ZM53.4213 53.2361C53.4213 55.9261 55.6063 58.1111 58.2963 58.1111V52.1111C58.9201 52.1111 59.4213 52.6124 59.4213 53.2361H53.4213ZM58.2963 58.1111C60.9863 58.1111 63.1713 55.9261 63.1713 53.2361H57.1713C57.1713 52.6124 57.6726 52.1111 58.2963 52.1111V58.1111ZM63.1713 53.2361V47.6111H57.1713V53.2361H63.1713ZM63.1713 47.6111C63.1713 44.9211 60.9863 42.7361 58.2963 42.7361V48.7361C57.6726 48.7361 57.1713 48.2348 57.1713 47.6111H63.1713ZM58.2963 42.7361C55.6063 42.7361 53.4213 44.9211 53.4213 47.6111H59.4213C59.4213 48.2348 58.9201 48.7361 58.2963 48.7361V42.7361ZM53.4213 47.6111V53.2361H59.4213V47.6111H53.4213ZM95.6433 88.9387C95.1519 89.3716 94.5554 89.6111 93.9213 89.6111V95.6111C96.1372 95.6111 98.117 94.7556 99.6094 93.441L95.6433 88.9387ZM93.9213 89.6111H52.6713V95.6111H93.9213V89.6111ZM52.6713 89.6111C52.0372 89.6111 51.4408 89.3716 50.9494 88.9387L46.9833 93.441C48.4756 94.7556 50.4554 95.6111 52.6713 95.6111V89.6111ZM45.9886 91.5549C46.3946 94.8661 49.1994 97.4861 52.6713 97.4861V91.4861C52.3183 91.4861 51.9919 91.2148 51.944 90.8248L45.9886 91.5549ZM52.6713 97.4861H93.9213V91.4861H52.6713V97.4861ZM93.9213 97.4861C97.3933 97.4861 100.198 94.8661 100.604 91.5549L94.6486 90.8248C94.6008 91.2148 94.2744 91.4861 93.9213 91.4861V97.4861ZM97.6713 59.6111H48.9213V65.6111H97.6713V59.6111ZM45.9213 62.6111V86.9861H51.9213V62.6111H45.9213ZM45.9213 86.9861C45.9213 90.7111 48.9463 93.7361 52.6713 93.7361V87.7361C52.2601 87.7361 51.9213 87.3974 51.9213 86.9861H45.9213ZM52.6713 93.7361H93.9213V87.7361H52.6713V93.7361ZM93.9213 93.7361C97.6463 93.7361 100.671 90.7111 100.671 86.9861H94.6713C94.6713 87.3974 94.3326 87.7361 93.9213 87.7361V93.7361ZM100.671 86.9861V62.6111H94.6713V86.9861H100.671ZM100.671 55.1111C100.671 51.3861 97.6463 48.3611 93.9213 48.3611V54.3611C94.3326 54.3611 94.6713 54.6998 94.6713 55.1111H100.671ZM93.9213 48.3611H92.0463V54.3611H93.9213V48.3611ZM89.0463 51.3611V53.2361H95.0463V51.3611H89.0463ZM89.0463 53.2361C89.0463 53.6511 88.7113 53.9861 88.2963 53.9861V59.9861C92.0251 59.9861 95.0463 56.9648 95.0463 53.2361H89.0463ZM88.2963 53.9861C87.8813 53.9861 87.5463 53.6511 87.5463 53.2361H81.5463C81.5463 56.9648 84.5676 59.9861 88.2963 59.9861V53.9861ZM87.5463 53.2361V51.3611H81.5463V53.2361H87.5463ZM84.5463 48.3611H62.0463V54.3611H84.5463V48.3611ZM59.0463 51.3611V53.2361H65.0463V51.3611H59.0463ZM59.0463 53.2361C59.0463 53.6511 58.7113 53.9861 58.2963 53.9861V59.9861C62.0251 59.9861 65.0463 56.9648 65.0463 53.2361H59.0463ZM58.2963 53.9861C57.8813 53.9861 57.5463 53.6511 57.5463 53.2361H51.5463C51.5463 56.9648 54.5676 59.9861 58.2963 59.9861V53.9861ZM57.5463 53.2361V51.3611H51.5463V53.2361H57.5463ZM54.5463 48.3611H52.6713V54.3611H54.5463V48.3611ZM52.6713 48.3611C48.9463 48.3611 45.9213 51.3861 45.9213 55.1111H51.9213C51.9213 54.6998 52.2601 54.3611 52.6713 54.3611V48.3611ZM45.9213 55.1111V60.7361H51.9213V55.1111H45.9213ZM48.9213 63.7361H97.6713V57.7361H48.9213V63.7361ZM100.671 60.7361V55.1111H94.6713V60.7361H100.671Z" fill="black" mask="url(#path-2-inside-1_1_788)"/>
</g>
<defs>
<filter id="filter0_d_1_788" x="0.0371103" y="0.666666" width="162.963" height="162.963" filterUnits="userSpaceOnUse" color-interpolation-filters="sRGB">
<feFlood flood-opacity="0" result="BackgroundImageFix"/>
<feColorMatrix in="SourceAlpha" type="matrix" values="0 0 0 0 0 0 0 0 0 0 0 0 0 0 0 0 0 0 127 0" result="hardAlpha"/>
<feOffset dx="8.14815" dy="12.2222"/>
<feGaussianBlur stdDeviation="15.2778"/>
<feComposite in2="hardAlpha" operator="out"/>
<feColorMatrix type="matrix" values="0 0 0 0 0.364706 0 0 0 0 0.8 0 0 0 0 0.988235 0 0 0 0.2 0"/>
<feBlend mode="normal" in2="BackgroundImageFix" result="effect1_dropShadow_1_788"/>
<feBlend mode="normal" in="SourceGraphic" in2="effect1_dropShadow_1_788" result="shape"/>
</filter>
</defs>
</svg>
