<svg width="260" height="280" viewBox="0 0 260 280" fill="none" xmlns="http://www.w3.org/2000/svg">
<path d="M160.734 108.413C160.734 114.1 156.186 118.71 150.576 118.71C144.967 118.71 140.419 114.1 140.419 108.413C140.419 103.709 143.338 100.481 147.682 96.0376C149.265 94.4186 151.894 94.4124 153.479 96.0286C157.792 100.424 160.734 103.718 160.734 108.413Z" fill="url(#paint0_radial_1_669)"/>
<g opacity="0.8" filter="url(#filter0_f_1_669)">
<path d="M159.414 111.857C159.414 116.836 155.435 120.873 150.526 120.873C145.617 120.873 141.638 116.836 141.638 111.857C141.638 107.871 144.031 105.095 147.631 101.394C149.211 99.7704 151.848 99.7641 153.429 101.386C157.004 105.051 159.414 107.88 159.414 111.857Z" fill="url(#paint1_radial_1_669)"/>
</g>
<g style="mix-blend-mode:color-burn" filter="url(#filter1_f_1_669)">
<path fill-rule="evenodd" clip-rule="evenodd" d="M160.183 111.726C158.328 114.194 155.397 115.787 152.1 115.787C146.49 115.787 141.942 111.177 141.942 105.49C141.942 104.172 142.172 102.97 142.597 101.824C141.216 103.86 140.419 105.915 140.419 108.373C140.419 114.06 144.967 118.67 150.577 118.67C155.029 118.67 158.812 115.767 160.183 111.726Z" fill="url(#paint2_radial_1_669)"/>
</g>
<g style="mix-blend-mode:screen" opacity="0.3">
<ellipse cx="153.928" cy="102.853" rx="9.64955" ry="9.78226" fill="url(#paint3_radial_1_669)"/>
</g>
<g style="mix-blend-mode:screen" opacity="0.7" filter="url(#filter2_f_1_669)">
<ellipse cx="146.31" cy="112.635" rx="9.64955" ry="9.78226" fill="url(#paint4_radial_1_669)"/>
</g>
<path d="M148.657 147.685C148.657 162.019 137.194 173.64 123.054 173.64C108.913 173.64 97.4503 162.019 97.4503 147.685C97.4503 134.296 106.831 125.652 120.169 111.987C121.75 110.367 124.363 110.361 125.95 111.976C139.181 125.441 148.657 134.307 148.657 147.685Z" fill="url(#paint5_radial_1_669)"/>
<g opacity="0.8" filter="url(#filter3_f_1_669)">
<path d="M145.33 156.367C145.33 168.917 135.3 179.091 122.927 179.091C110.554 179.091 100.524 168.917 100.524 156.367C100.524 144.768 108.561 137.236 120.038 125.487C121.62 123.867 124.239 123.861 125.826 125.476C137.212 137.057 145.33 144.779 145.33 156.367Z" fill="url(#paint6_radial_1_669)"/>
</g>
<g style="mix-blend-mode:color-burn" filter="url(#filter4_f_1_669)">
<path fill-rule="evenodd" clip-rule="evenodd" d="M147.269 156.037C142.591 162.257 135.205 166.271 126.894 166.271C112.754 166.271 101.291 154.651 101.291 140.316C101.291 136.992 101.869 133.961 102.942 131.073C99.4606 136.205 97.4508 141.386 97.4508 147.583C97.4508 161.918 108.914 173.539 123.054 173.539C134.275 173.539 143.81 166.221 147.269 156.037Z" fill="url(#paint7_radial_1_669)"/>
</g>
<g style="mix-blend-mode:screen" opacity="0.3">
<ellipse cx="131.504" cy="133.669" rx="24.3232" ry="24.6577" fill="url(#paint8_radial_1_669)"/>
</g>
<g style="mix-blend-mode:screen" opacity="0.7" filter="url(#filter5_f_1_669)">
<ellipse cx="112.301" cy="158.326" rx="24.3232" ry="24.6577" fill="url(#paint9_radial_1_669)"/>
</g>
<defs>
<filter id="filter0_f_1_669" x="41.6382" y="0.172852" width="217.775" height="220.7" filterUnits="userSpaceOnUse" color-interpolation-filters="sRGB">
<feFlood flood-opacity="0" result="BackgroundImageFix"/>
<feBlend mode="normal" in="SourceGraphic" in2="BackgroundImageFix" result="shape"/>
<feGaussianBlur stdDeviation="50" result="effect1_foregroundBlur_1_669"/>
</filter>
<filter id="filter1_f_1_669" x="130.419" y="91.8245" width="39.7643" height="36.8459" filterUnits="userSpaceOnUse" color-interpolation-filters="sRGB">
<feFlood flood-opacity="0" result="BackgroundImageFix"/>
<feBlend mode="normal" in="SourceGraphic" in2="BackgroundImageFix" result="shape"/>
<feGaussianBlur stdDeviation="5" result="effect1_foregroundBlur_1_669"/>
</filter>
<filter id="filter2_f_1_669" x="86.6605" y="52.8528" width="119.299" height="119.564" filterUnits="userSpaceOnUse" color-interpolation-filters="sRGB">
<feFlood flood-opacity="0" result="BackgroundImageFix"/>
<feBlend mode="normal" in="SourceGraphic" in2="BackgroundImageFix" result="shape"/>
<feGaussianBlur stdDeviation="25" result="effect1_foregroundBlur_1_669"/>
</filter>
<filter id="filter3_f_1_669" x="0.523804" y="24.2683" width="244.806" height="254.823" filterUnits="userSpaceOnUse" color-interpolation-filters="sRGB">
<feFlood flood-opacity="0" result="BackgroundImageFix"/>
<feBlend mode="normal" in="SourceGraphic" in2="BackgroundImageFix" result="shape"/>
<feGaussianBlur stdDeviation="50" result="effect1_foregroundBlur_1_669"/>
</filter>
<filter id="filter4_f_1_669" x="87.4508" y="121.073" width="69.8181" height="62.4658" filterUnits="userSpaceOnUse" color-interpolation-filters="sRGB">
<feFlood flood-opacity="0" result="BackgroundImageFix"/>
<feBlend mode="normal" in="SourceGraphic" in2="BackgroundImageFix" result="shape"/>
<feGaussianBlur stdDeviation="5" result="effect1_foregroundBlur_1_669"/>
</filter>
<filter id="filter5_f_1_669" x="37.978" y="83.6687" width="148.646" height="149.315" filterUnits="userSpaceOnUse" color-interpolation-filters="sRGB">
<feFlood flood-opacity="0" result="BackgroundImageFix"/>
<feBlend mode="normal" in="SourceGraphic" in2="BackgroundImageFix" result="shape"/>
<feGaussianBlur stdDeviation="25" result="effect1_foregroundBlur_1_669"/>
</filter>
<radialGradient id="paint0_radial_1_669" cx="0" cy="0" r="1" gradientUnits="userSpaceOnUse" gradientTransform="translate(150.576 111.914) rotate(-46.3996) scale(20.5468 16.494)">
<stop offset="0.109324" stop-color="#3CC7F5"/>
<stop offset="1" stop-color="#5686F5"/>
</radialGradient>
<radialGradient id="paint1_radial_1_669" cx="0" cy="0" r="1" gradientUnits="userSpaceOnUse" gradientTransform="translate(150.526 114.923) rotate(-46.416) scale(17.9839 14.4362)">
<stop offset="0.109324" stop-color="#3CC7F5"/>
<stop offset="1" stop-color="#5686F5"/>
</radialGradient>
<radialGradient id="paint2_radial_1_669" cx="0" cy="0" r="1" gradientUnits="userSpaceOnUse" gradientTransform="translate(150.577 111.875) rotate(-46.3972) scale(20.5463 16.4937)">
<stop offset="0.109324" stop-color="#3CC7F5"/>
<stop offset="1" stop-color="#5686F5"/>
</radialGradient>
<radialGradient id="paint3_radial_1_669" cx="0" cy="0" r="1" gradientUnits="userSpaceOnUse" gradientTransform="translate(153.928 102.853) rotate(51.9397) scale(10.4624 2.36084)">
<stop stop-color="white"/>
<stop offset="0.601048" stop-color="#BDDBF1" stop-opacity="0.28"/>
<stop offset="1" stop-color="#5686F5" stop-opacity="0"/>
</radialGradient>
<radialGradient id="paint4_radial_1_669" cx="0" cy="0" r="1" gradientUnits="userSpaceOnUse" gradientTransform="translate(146.31 112.635) rotate(50.5273) scale(7.27002 7.20818)">
<stop stop-color="white"/>
<stop offset="0.601048" stop-color="#BDDBF1" stop-opacity="0.28"/>
<stop offset="1" stop-color="#5686F5" stop-opacity="0"/>
</radialGradient>
<radialGradient id="paint5_radial_1_669" cx="0" cy="0" r="1" gradientUnits="userSpaceOnUse" gradientTransform="translate(123.054 156.509) rotate(-46.3996) scale(51.7914 41.5757)">
<stop offset="0.109324" stop-color="#3CC7F5"/>
<stop offset="1" stop-color="#5686F5"/>
</radialGradient>
<radialGradient id="paint6_radial_1_669" cx="0" cy="0" r="1" gradientUnits="userSpaceOnUse" gradientTransform="translate(122.927 164.093) rotate(-46.416) scale(45.3311 36.3886)">
<stop offset="0.109324" stop-color="#3CC7F5"/>
<stop offset="1" stop-color="#5686F5"/>
</radialGradient>
<radialGradient id="paint7_radial_1_669" cx="0" cy="0" r="1" gradientUnits="userSpaceOnUse" gradientTransform="translate(123.054 156.408) rotate(-46.3991) scale(51.7911 41.5755)">
<stop offset="0.109324" stop-color="#3CC7F5"/>
<stop offset="1" stop-color="#5686F5"/>
</radialGradient>
<radialGradient id="paint8_radial_1_669" cx="0" cy="0" r="1" gradientUnits="userSpaceOnUse" gradientTransform="translate(131.504 133.669) rotate(51.9397) scale(26.3721 5.95087)">
<stop stop-color="white"/>
<stop offset="0.601048" stop-color="#BDDBF1" stop-opacity="0.28"/>
<stop offset="1" stop-color="#5686F5" stop-opacity="0"/>
</radialGradient>
<radialGradient id="paint9_radial_1_669" cx="0" cy="0" r="1" gradientUnits="userSpaceOnUse" gradientTransform="translate(112.301 158.326) rotate(50.5273) scale(18.3252 18.1693)">
<stop stop-color="white"/>
<stop offset="0.601048" stop-color="#BDDBF1" stop-opacity="0.28"/>
<stop offset="1" stop-color="#5686F5" stop-opacity="0"/>
</radialGradient>
</defs>
</svg>
