<svg width="1600" height="972" viewBox="0 0 1600 972" fill="none" xmlns="http://www.w3.org/2000/svg">
<g clip-path="url(#clip0_1_1268)">
<rect width="1600" height="972" fill="#F4F8FB"/>
<g clip-path="url(#clip1_1_1268)">
<path d="M597.012 348.426C577.687 378.781 557.092 408.4 536.681 437.898C476.458 524.943 407.849 618.147 385.75 724.402C363.53 830.867 370.764 942.34 410.766 1045.13C457.382 1165.17 549.409 1264.69 651.834 1339.19C726.185 1393.25 814.315 1429.24 905.16 1436.87C1009.29 1445.61 1091.83 1420.86 1172.99 1355.15C1229.65 1309.32 1279.73 1254.85 1340.44 1214.59C1451 1141.23 1587.19 1120.28 1717.03 1091.45C1795.12 1074.08 1873.58 1052.28 1944.23 1014.41C1979.77 995.395 2011.79 972.019 2041.35 944.499C2063.58 923.752 2088.89 909.886 2109.8 887.128C2198.61 790.215 2259.07 665.455 2276.28 533.222C2283.65 476.686 2282.99 418.877 2273.37 362.369C2237.99 154.202 2072.42 -33.4204 1867.03 -73.8323C1795.62 -87.9412 1721.42 -85.169 1651.48 -106.003C1546.93 -137.101 1463.17 -217.053 1364.5 -264.311C1236.71 -325.433 1083.66 -327.569 956.653 -270.105C840.967 -217.717 733.16 -107.287 700.211 19.3095C682.069 88.9376 692.575 157.559 663.798 225.138C645.445 268.335 622.256 308.949 597.103 348.366L597.012 348.426Z" fill="#5DCCFC"/>
</g>
</g>
<defs>
<clipPath id="clip0_1_1268">
<rect width="1600" height="972" fill="white"/>
</clipPath>
<clipPath id="clip1_1_1268">
<rect width="1988.3" height="1623.11" fill="white" transform="translate(-41 378.293) rotate(-33.2842)"/>
</clipPath>
</defs>
</svg>
