<?xml version="1.0" standalone="no"?>
<!DOCTYPE svg PUBLIC "-//W3C//DTD SVG 20010904//EN"
 "http://www.w3.org/TR/2001/REC-SVG-20010904/DTD/svg10.dtd">
<svg version="1.0" xmlns="http://www.w3.org/2000/svg"
 width="40.000000pt" height="40.000000pt" viewBox="0 0 500.000000 500.000000"
 preserveAspectRatio="xMidYMid meet">

<g transform="translate(0.000000,500.000000) scale(0.100000,-0.100000)"
fill="#000000" stroke="none">
<path d="M2465 4455 c-5 -2 -22 -6 -38 -9 -40 -9 -103 -71 -122 -120 -13 -35
-16 -75 -13 -222 3 -206 13 -236 87 -289 38 -27 51 -30 115 -30 94 0 146 31
182 108 22 49 24 63 24 225 0 192 -7 222 -63 280 -39 40 -131 71 -172 57z m70
-160 c24 -24 25 -28 25 -180 0 -142 -2 -157 -20 -175 -11 -11 -31 -20 -45 -20
-14 0 -34 9 -45 20 -18 18 -20 33 -20 175 0 152 1 156 25 180 13 14 31 25 40
25 9 0 27 -11 40 -25z"/>
<path d="M1615 4275 c-76 -27 -135 -114 -135 -200 0 -35 28 -97 96 -216 96
-170 128 -200 222 -215 133 -21 256 118 221 250 -16 60 -164 309 -204 345 -56
49 -127 62 -200 36z m117 -152 c35 -41 151 -255 151 -280 0 -14 -9 -32 -19
-40 -19 -14 -62 -17 -80 -5 -15 10 -164 268 -164 284 0 7 7 24 16 36 19 27 74
30 96 5z"/>
<path d="M3236 4275 c-60 -21 -94 -62 -185 -220 -78 -136 -84 -151 -85 -203
-1 -167 166 -261 311 -176 34 20 56 47 109 137 86 144 124 224 124 262 0 116
-99 216 -210 215 -14 -1 -42 -7 -64 -15z m120 -160 c10 -15 13 -32 9 -46 -10
-30 -146 -262 -159 -271 -17 -12 -61 -9 -78 5 -35 27 -30 50 43 178 39 68 78
132 87 142 23 26 78 22 98 -8z"/>
<path d="M808 3801 c-15 -12 -68 -94 -119 -184 -51 -89 -154 -268 -229 -397
-317 -545 -460 -799 -460 -817 0 -10 7 -28 15 -40 12 -17 437 -272 552 -332
39 -20 65 -13 104 30 38 41 39 42 64 25 19 -12 24 -22 19 -34 -4 -9 -9 -42
-11 -72 -5 -50 -1 -63 42 -148 61 -119 110 -174 179 -202 53 -23 54 -23 60
-74 3 -31 22 -84 48 -134 80 -156 142 -205 260 -206 l67 -1 6 -35 c7 -36 57
-134 107 -207 43 -64 107 -97 188 -98 36 0 76 2 89 5 20 4 25 0 36 -35 14 -50
88 -180 124 -218 46 -50 98 -71 176 -72 66 0 76 3 169 54 54 29 113 66 131 82
18 16 35 29 38 29 3 0 67 -36 143 -79 164 -94 208 -108 288 -91 84 17 129 58
193 170 29 52 56 110 59 127 3 18 8 33 9 33 2 0 27 -11 57 -25 104 -49 235
-20 296 65 35 48 110 197 117 232 5 25 10 28 45 28 56 0 141 35 177 72 51 54
124 192 136 258 8 42 16 60 27 60 31 0 116 48 147 83 17 19 52 77 77 127 40
80 46 100 46 154 0 38 -7 77 -19 103 l-19 42 25 17 c25 15 26 15 36 -2 20 -36
66 -74 89 -74 30 0 554 301 585 336 13 14 23 34 23 46 0 11 -98 190 -217 397
-119 207 -293 509 -386 671 -93 162 -182 308 -199 323 -23 22 -37 28 -57 24
-33 -7 -562 -312 -578 -334 -18 -23 -16 -79 2 -107 16 -23 15 -24 -62 -69
-128 -75 -169 -90 -248 -90 -54 -1 -86 6 -139 28 -79 32 -114 27 -130 -16 -17
-50 -1 -78 67 -109 160 -74 305 -60 497 50 48 27 91 50 96 50 5 0 54 -78 108
-173 292 -504 466 -808 466 -811 0 -3 -23 -18 -51 -34 l-52 -30 -261 151
c-143 83 -398 230 -566 327 -251 145 -304 179 -302 195 15 99 14 106 -3 125
-18 20 -69 27 -92 12 -6 -4 -21 -30 -33 -57 -48 -112 -122 -165 -230 -165 -69
0 -122 22 -181 75 -78 70 -148 70 -266 2 -98 -56 -142 -70 -215 -69 -97 1
-183 52 -240 141 -26 41 -26 45 -10 56 59 41 646 372 687 388 71 27 178 20
263 -18 71 -32 103 -27 124 20 19 43 0 76 -62 107 -104 52 -248 64 -359 29
-34 -11 -169 -81 -305 -160 -168 -98 -252 -141 -274 -141 -54 0 -151 37 -263
101 -107 62 -109 63 -94 85 8 13 15 39 15 59 0 44 -22 66 -112 114 -72 38
-107 38 -133 -3 -24 -36 -10 -73 39 -104 22 -14 43 -27 44 -28 2 -2 -85 -157
-194 -346 -109 -189 -265 -460 -347 -603 -82 -143 -153 -264 -158 -269 -8 -9
-36 5 -272 142 -113 65 -146 89 -142 101 6 14 133 237 562 979 74 127 137 232
139 232 3 0 22 -10 44 -22 46 -27 86 -18 110 25 13 24 13 30 0 54 -17 31 -125
101 -168 109 -19 4 -36 -1 -54 -15z m3477 -423 c87 -150 243 -421 348 -601
104 -180 190 -335 191 -343 1 -10 -70 -56 -199 -130 -110 -63 -203 -114 -206
-114 -4 0 -79 125 -167 278 -88 152 -246 427 -352 610 -105 183 -190 335 -188
337 8 7 404 234 410 235 3 0 77 -123 163 -272z m-2788 -231 c46 -25 92 -49
103 -52 24 -8 25 -18 4 -36 -54 -45 -58 -122 -8 -205 51 -86 109 -140 193
-182 74 -36 77 -37 192 -37 l118 0 115 59 114 59 43 -37 c24 -20 68 -49 99
-64 49 -24 66 -27 160 -27 109 0 146 11 241 72 26 17 28 16 320 -154 162 -93
432 -250 602 -348 169 -97 316 -189 327 -202 30 -38 25 -77 -22 -166 -48 -89
-85 -121 -133 -113 -16 2 -173 86 -347 186 -302 174 -319 182 -347 171 -15 -7
-34 -24 -40 -38 -23 -50 -2 -73 152 -161 390 -222 432 -249 449 -283 10 -19
18 -41 18 -49 0 -25 -93 -181 -117 -197 -51 -34 -79 -23 -375 148 -187 107
-293 162 -312 162 -55 0 -85 -69 -48 -110 9 -11 103 -69 207 -128 252 -144
262 -151 275 -191 14 -41 9 -58 -44 -153 -45 -80 -79 -106 -130 -98 -17 3
-129 62 -250 131 -120 69 -228 129 -240 132 -30 7 -76 -30 -76 -62 0 -44 18
-61 131 -126 159 -90 171 -125 89 -267 -45 -76 -89 -109 -133 -97 -11 2 -83
41 -161 86 l-141 81 0 77 c-1 94 -24 151 -87 214 -57 57 -124 88 -209 95 l-69
6 0 47 c0 77 -27 139 -89 201 -63 63 -131 92 -217 93 l-52 1 -5 63 c-9 114
-71 205 -174 255 -39 19 -44 25 -38 47 24 96 27 127 16 180 -22 108 -75 153
-130 112 -29 -22 -32 -54 -10 -134 10 -41 10 -53 -5 -92 -23 -59 -44 -76 -221
-176 -207 -117 -232 -114 -313 41 -42 81 -44 88 -33 121 8 23 25 45 49 60 45
29 265 157 307 178 43 22 55 62 28 98 -37 49 -77 39 -258 -65 l-159 -91 -38
21 c-21 12 -38 25 -38 30 0 4 42 80 94 170 52 89 180 312 286 495 l192 332 32
-19 c17 -10 68 -39 113 -64z m80 -1378 c70 -43 99 -136 65 -211 -22 -51 -50
-74 -178 -146 -101 -57 -154 -67 -193 -34 -27 23 -111 171 -111 197 0 44 37
80 148 143 60 35 123 67 138 72 38 12 91 3 131 -21z m315 -329 c132 -37 171
-199 72 -292 -40 -36 -224 -138 -251 -138 -45 0 -74 24 -120 99 -52 87 -64
138 -39 175 25 39 245 164 291 166 6 0 27 -5 47 -10z m413 -369 c85 -49 107
-175 45 -254 -11 -14 -61 -49 -111 -78 -77 -44 -96 -50 -126 -46 -49 8 -75 36
-122 131 -42 82 -44 101 -16 148 11 18 155 106 195 119 34 11 98 2 135 -20z"/>
<path d="M3965 3415 c-30 -30 -31 -54 -4 -89 15 -19 30 -26 54 -26 61 0 88 75
42 118 -30 29 -62 28 -92 -3z"/>
<path d="M942 3417 c-43 -46 -17 -117 43 -117 67 0 95 79 43 123 -28 24 -60
21 -86 -6z"/>
</g>
</svg>
