<?xml version="1.0" standalone="no"?>
<!DOCTYPE svg PUBLIC "-//W3C//DTD SVG 20010904//EN"
 "http://www.w3.org/TR/2001/REC-SVG-20010904/DTD/svg10.dtd">
<svg version="1.0" xmlns="http://www.w3.org/2000/svg"
 width="40.000000pt" height="40.000000pt" viewBox="0 0 500.000000 500.000000"
 preserveAspectRatio="xMidYMid meet">

<g transform="translate(0.000000,500.000000) scale(0.100000,-0.100000)"
fill="#000000" stroke="none">
<path d="M2375 4989 c-220 -8 -339 -27 -565 -91 -656 -186 -1224 -653 -1529
-1257 -127 -251 -212 -518 -251 -783 -28 -187 -28 -529 0 -716 118 -804 625
-1510 1341 -1866 257 -128 531 -214 804 -252 179 -26 497 -23 680 5 814 124
1514 627 1869 1342 266 535 339 1112 212 1669 -38 165 -56 220 -84 252 -49 54
-147 46 -187 -16 -23 -35 -20 -79 13 -206 51 -195 64 -291 69 -511 6 -243 -10
-401 -62 -604 -172 -671 -630 -1223 -1248 -1503 -212 -95 -417 -155 -647 -188
-144 -21 -432 -21 -585 0 -635 88 -1213 444 -1567 966 -201 297 -332 646 -378
1010 -16 122 -16 398 0 520 68 529 304 1002 678 1361 290 279 641 472 1032
568 206 50 344 64 585 58 227 -5 317 -18 528 -72 142 -36 175 -35 217 10 34
36 39 111 10 148 -31 39 -58 51 -215 90 -239 60 -418 76 -720 66z"/>
<path d="M4075 4734 c-34 -17 -741 -717 -786 -778 l-29 -39 0 -241 0 -240
-434 -436 c-465 -467 -462 -463 -432 -533 16 -38 41 -62 79 -76 67 -26 74 -19
532 439 l430 430 241 0 241 0 39 29 c21 16 206 197 411 402 405 408 402 404
369 482 -29 70 -54 77 -283 77 l-203 0 0 203 c0 185 -2 205 -20 235 -20 32
-71 62 -107 62 -10 0 -31 -7 -48 -16z m-65 -541 l0 -115 34 -34 34 -34 115 0
c64 0 118 -4 121 -8 3 -5 -106 -119 -242 -255 l-248 -248 -159 3 -160 3 -3
160 -3 159 248 248 c136 136 250 245 255 242 4 -3 8 -57 8 -121z"/>
<path d="M2310 4239 c-426 -49 -847 -272 -1117 -591 -147 -174 -276 -402 -342
-605 -61 -187 -76 -294 -76 -538 0 -191 3 -234 23 -328 149 -709 667 -1227
1377 -1378 97 -21 137 -24 330 -24 190 0 236 3 333 23 427 86 807 325 1063
667 235 313 365 725 346 1093 -6 118 -18 144 -81 176 -32 16 -44 17 -76 7 -21
-6 -50 -25 -64 -41 -24 -29 -25 -34 -24 -182 0 -167 -17 -292 -56 -428 -145
-500 -557 -899 -1062 -1030 -679 -176 -1380 140 -1708 770 -232 446 -217 996
40 1430 197 334 512 581 874 686 136 40 261 56 428 56 l153 -1 32 29 c29 25
32 34 32 84 0 49 -4 59 -31 86 -17 17 -48 35 -70 40 -47 11 -221 11 -324 -1z"/>
<path d="M2365 3493 c-347 -49 -666 -306 -786 -634 -54 -149 -73 -290 -58
-448 22 -232 110 -420 278 -594 137 -142 306 -237 494 -278 112 -25 296 -27
407 -6 440 87 771 463 797 906 5 77 3 99 -11 126 -34 63 -110 83 -171 45 -40
-25 -52 -54 -60 -149 -29 -330 -243 -592 -555 -677 -89 -25 -290 -25 -380 -1
-260 69 -467 276 -537 537 -24 90 -24 291 1 380 85 311 348 527 672 555 100 8
129 19 154 60 37 59 19 134 -40 169 -27 16 -125 20 -205 9z"/>
</g>
</svg>
