<svg width="327" height="312" viewBox="0 0 327 312" fill="none" xmlns="http://www.w3.org/2000/svg">
<g clip-path="url(#clip0_1_799)">
<path d="M285.328 252.247L12.7009 194.299L12.6739 194.426L285.301 252.374L285.328 252.247Z" fill="#EBEBEB"/>
<path d="M146.743 199.105L41.4598 176.726C40.6353 176.55 39.9099 176.075 39.4428 175.407C38.9757 174.74 38.8052 173.933 38.9685 173.164L68.2831 35.2499C68.4527 34.4873 68.9385 33.8269 69.6349 33.4121C70.3312 32.9973 71.182 32.8617 72.0024 33.0347L177.285 55.4133C178.111 55.5888 178.838 56.0628 179.306 56.731C179.774 57.3992 179.946 58.2069 179.782 58.9763L150.473 196.865C150.309 197.635 149.824 198.303 149.125 198.723C148.425 199.143 147.569 199.28 146.743 199.105ZM71.9808 33.1363C71.1918 32.97 70.3738 33.1023 69.7061 33.504C69.0384 33.9057 68.5756 34.544 68.4194 35.2789L39.1048 173.193C38.9486 173.928 39.1117 174.7 39.5583 175.338C40.0049 175.977 40.6984 176.43 41.4868 176.599L146.77 198.978C147.559 199.144 148.378 199.012 149.046 198.611C149.715 198.209 150.179 197.571 150.337 196.836L179.651 58.922C179.806 58.1863 179.642 57.4147 179.194 56.7761C178.747 56.1375 178.053 55.684 177.264 55.5149L71.9808 33.1363Z" fill="#EBEBEB"/>
<path d="M264.687 224.175L159.398 201.795C158.573 201.618 157.847 201.144 157.379 200.476C156.911 199.808 156.739 199.001 156.901 198.232L186.216 60.3174C186.387 59.5546 186.874 58.8944 187.571 58.48C188.269 58.0655 189.12 57.9302 189.941 58.1033L295.229 80.4831C296.048 80.6598 296.768 81.13 297.235 81.7918C297.701 82.4536 297.875 83.2536 297.72 84.0184L268.406 221.933C268.243 222.7 267.76 223.367 267.062 223.788C266.365 224.208 265.511 224.347 264.687 224.175ZM189.919 58.2049C189.13 58.0385 188.311 58.1705 187.643 58.5718C186.974 58.9732 186.51 59.6113 186.352 60.3464L157.038 198.261C156.883 198.996 157.047 199.768 157.495 200.407C157.942 201.045 158.636 201.499 159.425 201.668L264.714 224.048C265.503 224.214 266.322 224.082 266.99 223.681C267.659 223.279 268.123 222.641 268.28 221.906L297.595 83.9917C297.75 83.256 297.586 82.4844 297.138 81.8458C296.691 81.2072 295.996 80.7538 295.208 80.5847L189.919 58.2049Z" fill="#EBEBEB"/>
<path d="M237.551 195.502C231.033 169.863 188.406 168.896 169.941 137.558C151.475 106.219 137.224 64.253 110.132 66.5825C83.0403 68.912 80.2254 50.008 71.255 51.994C62.2845 53.9799 69.5963 63.7389 81.5795 67.7677C99.1737 73.6848 114.83 84.458 114.822 101.732C114.811 121.437 95.3505 113.201 88.8029 106.175C81.2186 98.0463 68.6077 111.797 86.0255 118.33C103.443 124.862 136.987 123.171 153.931 146.252C164.63 160.826 177.306 166.744 193.642 175.686C209.977 184.628 167.704 198.191 157.383 208.621C147.062 219.05 152.651 224.046 152.651 224.046L195.862 233.231C212.179 234.219 244.07 221.136 237.551 195.502Z" fill="#F5F5F5"/>
<path d="M89.5346 96.9409C85.226 94.3947 80.6236 85.4559 87.9416 86.2307C95.2595 87.0055 97.5198 101.655 89.5346 96.9409Z" fill="#F5F5F5"/>
<path d="M235.741 162.298C239.953 158.839 256.045 156.97 255.52 163.889C254.995 170.809 227.945 168.708 235.741 162.298Z" fill="#F5F5F5"/>
<path d="M108.736 163.103C105.037 164.149 87.6506 144.734 96.4962 140.789C105.342 136.843 110.918 162.489 108.736 163.103Z" fill="#F5F5F5"/>
<path d="M225.522 89.564C223.99 85.2713 227.49 72.9352 233.01 75.7867C238.53 78.6382 228.364 97.5074 225.522 89.564Z" fill="#F5F5F5"/>
<path d="M183.208 141.419C171.037 116.394 198.22 102.778 226.982 101.866C255.744 100.953 250.432 91.2529 246.651 84.188C242.87 77.1231 252.73 71.6727 261.983 79.943C271.235 88.2133 265.343 103.493 247.417 110.452C229.49 117.412 233.541 123.854 238.405 142.955C243.96 164.762 197.135 170.056 183.208 141.419Z" fill="#F5F5F5"/>
<path d="M128.791 175.836C116.422 181.879 102.189 170.793 88.358 157.948C72.7689 143.483 69.8602 129.445 60.5259 130.997C43.8003 133.783 98.746 172.19 83.6297 174.644C68.5133 177.097 69.7495 162.756 64.4078 154.801C59.0661 146.847 45.3134 150.392 58.8825 171.465C72.4517 192.538 64.5381 205.317 64.5381 205.317L144.107 222.23C148.634 216.294 141.155 169.787 128.791 175.836Z" fill="#F5F5F5"/>
<path d="M144.137 246.219C202.524 258.629 250.404 266.115 251.079 262.938C251.754 259.762 204.969 247.126 146.582 234.715C88.195 222.305 40.3155 214.819 39.6403 217.996C38.9651 221.172 85.7499 233.808 144.137 246.219Z" fill="#F5F5F5"/>
<path opacity="0.1" d="M92.4447 187.25C92.6086 186.807 92.9488 186.444 93.3956 186.236C93.8424 186.028 94.362 185.99 94.8483 186.131C99.5286 187.062 103.244 191.059 106.594 195.218C107.339 196.136 108.154 197.1 109.326 196.547C109.689 196.373 109.986 196.099 110.177 195.762C110.477 195.207 110.61 194.582 110.562 193.953C110.516 193.433 110.363 192.924 110.111 192.455C108.808 189.921 106.887 188.424 105.622 185.824C104.919 184.341 104.405 182.789 104.091 181.202C103.819 179.801 103.168 177.501 103.971 175.866C104.898 173.891 106.522 174.427 107.472 174.921C110.472 176.488 112.999 179.24 115.143 182.452C117.431 185.87 119.325 189.804 121.211 193.72C121.922 195.199 122.679 196.735 123.834 197.464C124.99 198.193 126.737 197.779 127.657 196.052C128.576 194.325 128.404 192.079 128.662 190.222C128.951 188.002 129.531 185.832 130.389 183.76C130.808 182.658 131.454 181.65 132.291 180.792C134.107 179.165 136.046 180.283 137.1 182.026C137.881 183.463 138.393 185.01 138.614 186.596C139.313 190.6 139.227 195.266 138.655 199.807C138.296 202.514 138.142 205.386 138.879 207.709C140.071 211.457 143.678 211.942 146.804 210.775C152.245 208.745 157.406 202.641 160.03 195.148C160.886 192.706 161.543 190.015 162.973 188.115C164.215 186.478 166.674 185.715 167.331 187.905C167.555 188.978 167.448 190.079 167.021 191.079C166.61 192.071 166.122 193.032 165.561 193.955C164.649 195.566 163.414 198.692 164.673 200.011C164.866 200.182 165.095 200.312 165.345 200.393C165.594 200.473 165.858 200.502 166.118 200.478C171.136 200.572 176.517 197.292 180.715 192.019C182.255 190.026 183.562 187.882 184.617 185.621C185.279 184.248 185.759 182.714 186.459 181.355C186.954 180.274 187.691 179.31 188.621 178.527C190.942 176.833 195.061 178.738 194.353 183.277C193.943 185.877 192.661 188.26 191.832 190.739C191.325 192.294 192.381 192.502 193.177 192.618C197.015 193.062 201.093 190.233 204.824 187.181C209.26 183.551 214.35 178.696 219.172 179.551C220.271 179.742 222.058 180.26 222.379 181.969C222.478 182.996 222.26 184.019 221.753 184.916C219.985 188.46 216.726 189.796 214.152 191.182C206.861 195.252 200.163 200.17 194.211 205.822C193.303 206.691 192.233 208.211 192.68 209.352C192.772 209.564 192.927 209.748 193.127 209.881C193.327 210.013 193.563 210.088 193.804 210.096C196.09 210.417 198.555 209.194 200.905 208.249C203.254 207.304 205.845 206.59 207.772 208.115C208.357 208.627 208.831 209.239 209.168 209.916C209.504 210.594 209.695 211.324 209.731 212.063C209.854 213.373 209.64 214.683 209.107 215.882C207.583 219.164 203.834 219.992 201.592 221.289C198.507 223.067 195.597 225.094 192.896 227.348C190.4 229.436 187.963 231.785 185.477 233.832C176.518 241.126 166.426 240.346 157.484 239.513C147.756 238.603 138.369 235.981 129.177 232.816C122.493 230.503 116.115 227.241 109.872 223.657C107.737 222.391 105.632 221.056 103.589 219.571C101.392 217.978 97.9616 216.553 97.9299 212.117C97.9281 211.161 98.3147 210.468 99.037 210.26C101.275 209.626 103.84 211.658 105.533 213C107.868 214.856 109.949 217.237 112.418 218.813C112.809 219.1 113.254 219.312 113.729 219.437C114.204 219.562 114.698 219.596 115.182 219.539C115.659 219.46 116.089 219.229 116.398 218.884C116.793 218.427 116.99 217.845 116.951 217.249C116.903 216.923 116.774 216.61 116.575 216.335C112.751 210.692 107.788 205.788 101.975 201.91C100.104 200.657 98.158 199.542 96.4359 197.965C95.0397 196.71 93.9239 195.208 93.157 193.551C92.4771 192.058 91.5179 189.331 92.4447 187.25Z" fill="#0F80FD"/>
<path opacity="0.1" d="M204.674 172.067C204.235 172.341 203.709 172.472 203.174 172.438C202.64 172.404 202.127 172.209 201.712 171.881C201.298 171.553 201.005 171.11 200.877 170.62C200.75 170.129 200.795 169.618 201.006 169.163C204.691 161.078 210.1 155.738 214.282 159.978C217.405 163.143 210.309 168.538 204.674 172.067Z" fill="#0F80FD"/>
<path opacity="0.1" d="M115.885 147.995C111.626 143.287 109.171 137.54 113.03 137.027C116.681 136.529 115.885 147.995 115.885 147.995Z" fill="#0F80FD"/>
<path opacity="0.3" d="M240.058 240.522C239.998 237.907 232.335 237.818 230.765 237.723C227.702 237.594 224.642 237.759 221.633 238.215C218.326 238.68 214.409 239.573 211.592 237.195C209.965 235.814 216.758 235.224 217.378 235.149C220.278 234.839 223.133 234.278 225.907 233.472C227.034 233.128 229.27 232.207 228.72 230.666C228.261 229.395 225.736 228.97 224.178 228.819C219.453 228.373 214.705 228.477 210.041 229.128C205.497 229.792 200.999 230.675 196.565 231.776C194.833 232.26 193.019 232.466 191.198 232.388C189.224 232.234 186.954 231.358 186.408 230.201C185.862 229.044 187.082 228.104 187.517 227.155C188.085 226.031 188.219 224.748 187.897 223.519C187.682 222.696 187.19 221.954 186.494 221.404C184.633 219.946 181.412 219.655 179.153 220.014C177.686 220.26 176.288 220.759 175.028 221.484C172.504 222.88 170.499 224.958 169.268 227.456C168.923 228.247 168.414 228.962 167.768 229.56C167.123 230.158 166.354 230.628 165.507 230.942C162.194 232.155 156.862 230.91 152.963 229.12C146.157 225.99 141.49 221.137 141.062 216.686C140.847 214.564 140.972 212.445 138.274 211.038C136.528 210.136 132.571 209.661 132.935 212.027C133.109 212.691 133.384 213.331 133.75 213.926C134.311 215.017 134.745 216.942 132.373 217.027C131.613 217.015 130.857 216.888 130.134 216.652C122.989 214.661 116.804 210.994 113.16 206.905C111.971 205.575 111.045 204.059 110.429 202.432C110.084 201.536 110.078 200.653 109.682 199.751C109.306 198.889 108.673 198.142 107.86 197.6C105.317 195.891 98.6615 195.082 97.684 197.429C97.1578 198.698 97.7366 200.318 97.9224 201.67C97.9709 201.845 97.952 202.029 97.8689 202.189C97.67 202.482 97.1326 202.463 96.6855 202.394C90.7692 201.514 85.5533 198.196 81.1202 194.949C76.4261 191.508 71.3588 187.25 64.1527 185.681C62.6739 185.302 61.1467 185.146 59.6291 185.219C59.2451 185.227 58.8708 185.319 58.5353 185.486C58.3227 185.619 58.1596 185.811 58.0671 186.035C57.9747 186.26 57.9571 186.507 58.0167 186.746C58.1552 187.242 58.4216 187.702 58.7922 188.084C60.6211 190.204 63.532 191.524 66.1368 192.97C73.8706 197.234 81.1765 202.165 87.956 207.698C88.6395 208.262 89.805 209.482 88.5763 209.954C87.3477 210.425 85.253 209.502 84.0028 209.029C81.7338 208.175 79.6018 207.133 77.4317 206.108C74.5611 204.76 71.177 203.361 67.7802 203.255C65.9859 203.198 64.3024 203.53 63.2999 204.252C62.9649 204.454 62.7094 204.752 62.5693 205.104C62.4291 205.455 62.4115 205.842 62.5189 206.21C63.2458 208.313 68.194 210.21 70.8032 211.688C74.1436 213.588 77.3592 215.68 80.4309 217.951C83.0531 219.905 85.44 221.947 88.1046 223.889C97.6225 230.83 112.184 234.552 125.222 237.801C139.372 241.34 153.788 243.953 168.165 246.238C178.639 247.902 189.034 249.001 199.451 249.915C202.445 250.174 205.439 250.354 208.424 250.6C211.441 250.912 214.473 250.994 217.49 250.844C218.568 250.818 219.621 250.575 220.577 250.13C221.499 249.625 221.932 248.793 220.592 248.237C217.785 247.072 214.643 247.053 211.682 246.933C208.361 246.793 205.05 246.748 201.749 246.797C200.239 246.851 198.723 246.818 197.211 246.698C195.692 246.58 194.206 246.17 192.845 245.494C192.406 245.257 191.945 244.904 192 244.512C192.055 244.121 192.499 243.96 192.934 243.899C199.278 242.979 205.822 242.92 212.384 242.988C216.837 243.031 221.295 243.427 225.741 243.665C229.791 243.889 233.955 244.62 237.839 243.051C238.597 242.788 239.245 242.313 239.696 241.687C239.937 241.344 240.063 240.938 240.058 240.522Z" fill="#0F80FD"/>
<path opacity="0.3" d="M75.7019 184.111C75.005 179.534 70.9056 170.829 68.7643 175.005C67.5971 177.332 75.7019 184.111 75.7019 184.111Z" fill="#0F80FD"/>
<path opacity="0.3" d="M216.89 222.809C220.482 220.87 224.605 220.132 224.612 222.512C224.613 224.759 216.89 222.809 216.89 222.809Z" fill="#0F80FD"/>
<path opacity="0.3" d="M96.4377 175.704C94.5708 174.245 93.2926 172.269 94.6587 171.847C96.0248 171.426 96.4377 175.704 96.4377 175.704Z" fill="#0F80FD"/>
<path d="M144.262 89.6431C144.262 89.6431 145.076 89.8161 145.402 89.8853C145.727 89.9545 158.312 89.1841 161.394 89.0942C161.49 91.4426 162.313 93.5731 163.858 95.1119L162.494 101.527L170.715 103.274L172.136 96.5921C173.928 95.7626 175.409 94.4012 176.414 92.4732C179.869 94.2317 189.681 99.2972 190.007 99.3664C190.395 99.542 191.147 99.6087 191.147 99.6087C194.402 100.301 197.713 97.9316 198.471 94.368C199.228 90.8043 197.167 87.2933 193.911 86.6012C193.504 86.5147 192.916 86.4827 192.916 86.4827L177.425 86.9149C176.968 83.4653 174.611 80.5434 171.274 79.834C167.855 79.1074 164.495 80.9073 162.655 83.9615L148.004 76.8433C148.004 76.8433 147.453 76.6331 147.046 76.5466C143.79 75.8545 140.479 78.2236 139.722 81.7873C138.945 85.4401 141.006 88.951 144.262 89.6431ZM194.925 163.08L194.888 163.258C194.888 163.258 182.15 180.757 181.855 181.346C181.402 182.274 180.793 183.541 180.509 184.878C179.316 190.49 182.501 195.916 187.629 197.006C192.757 198.096 197.874 194.435 199.067 188.822C199.44 186.667 199.067 184.818 199.067 184.818L194.925 163.08ZM206.271 154.131L208.562 143.351C211.99 127.225 197.694 124.838 197.694 124.838L179.868 121.049L181.08 115.347L172.812 107.817L158.894 104.858L148.34 108.481L147.128 114.183L131.093 110.775L126.965 130.197L189.721 143.536L188.282 150.307L186.329 149.892L184.776 157.198L206.346 161.782L207.899 154.477L206.271 154.131Z" fill="#3CC7F5"/>
</g>
<defs>
<clipPath id="clip0_1_799">
<rect width="278.717" height="259.727" fill="white" transform="translate(54.0003) rotate(12)"/>
</clipPath>
</defs>
</svg>
