<?xml version="1.0" standalone="no"?>
<!DOCTYPE svg PUBLIC "-//W3C//DTD SVG 20010904//EN"
 "http://www.w3.org/TR/2001/REC-SVG-20010904/DTD/svg10.dtd">
<svg version="1.0" xmlns="http://www.w3.org/2000/svg"
 width="40.000000pt" height="40.000000pt" viewBox="0 0 500.000000 500.000000"
 preserveAspectRatio="xMidYMid meet">

<g transform="translate(0.000000,500.000000) scale(0.100000,-0.100000)"
fill="#000000" stroke="none">
<path d="M2367 4490 c-251 -29 -498 -146 -686 -325 -248 -236 -373 -527 -374
-865 0 -314 106 -583 325 -825 186 -205 239 -294 263 -441 6 -40 6 -41 -33
-52 -21 -7 -60 -28 -85 -47 -102 -78 -139 -238 -81 -353 31 -62 102 -128 155
-144 22 -6 39 -12 39 -13 0 -1 -16 -32 -35 -69 -30 -58 -35 -77 -35 -134 0
-72 21 -130 66 -189 27 -35 117 -93 146 -93 18 0 21 -9 33 -85 11 -68 61 -159
121 -219 176 -176 454 -175 629 2 74 75 103 136 130 275 3 17 12 27 23 27 29
0 119 58 146 93 45 59 66 117 66 189 0 57 -5 76 -35 134 -19 37 -35 68 -35 69
0 1 17 7 38 13 50 15 115 72 149 129 21 36 27 63 31 123 4 68 1 85 -21 133
-32 70 -96 132 -159 155 l-49 17 6 40 c21 129 89 247 236 410 135 149 196 241
261 395 159 372 114 795 -123 1146 -168 250 -463 438 -772 493 -86 16 -252 21
-340 11z m355 -110 c311 -64 598 -278 751 -560 163 -300 169 -692 17 -1001
-51 -104 -102 -177 -201 -288 -118 -131 -164 -194 -209 -286 -39 -79 -70 -177
-70 -222 0 -23 -1 -23 -130 -23 l-130 0 2 418 3 417 145 5 c125 4 151 8 192
28 177 88 219 332 80 475 -61 64 -124 91 -212 91 -62 1 -85 -4 -132 -27 -69
-34 -121 -91 -148 -164 -16 -44 -20 -78 -20 -183 l0 -130 -160 0 -160 0 0 130
c0 105 -4 139 -20 183 -27 73 -79 130 -148 164 -48 23 -69 28 -132 27 -91 -1
-134 -19 -200 -80 -152 -142 -116 -395 68 -486 41 -20 67 -24 192 -28 l145 -5
3 -417 2 -418 -127 0 -128 0 -16 83 c-28 145 -103 269 -274 457 -224 245 -316
495 -302 814 8 165 38 281 112 431 154 311 454 540 788 600 114 21 302 18 419
-5z m-597 -1059 c51 -23 101 -79 114 -128 6 -21 11 -89 11 -151 l0 -114 -133
4 c-128 3 -136 4 -182 33 -139 86 -124 294 25 359 47 21 117 19 165 -3z m947
-17 c122 -86 118 -261 -7 -339 -46 -29 -54 -30 -182 -33 l-133 -4 0 114 c0
134 10 176 53 225 70 80 186 96 269 37z m-414 -886 l2 -418 -160 0 -160 0 0
413 c0 228 3 417 7 421 4 3 75 5 157 4 l151 -3 3 -417z m465 -532 c72 -30 126
-129 112 -205 -10 -54 -50 -116 -92 -143 l-38 -23 -606 0 -605 0 -43 28 c-45
30 -91 109 -91 157 0 73 53 159 115 186 45 20 1201 20 1248 0z m-136 -495 c64
-37 103 -103 103 -176 0 -55 -46 -132 -98 -163 l-47 -27 -445 0 -445 0 -42 24
c-51 29 -79 66 -95 125 -20 74 12 161 74 205 56 39 79 41 523 38 l430 -2 42
-24z m-143 -498 c-18 -107 -97 -213 -193 -260 -49 -25 -67 -28 -151 -28 -84 0
-102 3 -151 28 -96 47 -175 153 -193 260 l-7 37 351 0 351 0 -7 -37z"/>
<path d="M736 4121 c-11 -12 -15 -27 -12 -39 4 -12 83 -63 209 -135 111 -64
210 -119 219 -122 10 -4 25 2 37 14 24 24 25 31 8 54 -16 23 -404 247 -426
247 -10 0 -26 -9 -35 -19z"/>
<path d="M4010 4024 c-107 -63 -200 -121 -206 -130 -28 -36 17 -85 59 -63 134
69 408 235 413 251 7 25 -22 58 -50 57 -12 -1 -109 -52 -216 -115z"/>
<path d="M520 3310 c-24 -24 -24 -29 -4 -58 15 -22 19 -22 250 -22 143 0 243
4 255 10 26 14 26 66 0 80 -12 6 -110 10 -250 10 -218 0 -232 -1 -251 -20z"/>
<path d="M3978 3319 c-21 -12 -24 -59 -6 -77 9 -9 79 -12 254 -12 240 0 243 0
258 22 20 29 20 34 -4 58 -19 19 -33 20 -252 20 -140 0 -240 -5 -250 -11z"/>
<path d="M930 2613 c-179 -103 -205 -121 -208 -145 -4 -33 30 -61 62 -48 47
18 401 231 409 246 14 25 -8 64 -35 64 -13 0 -115 -53 -228 -117z"/>
<path d="M3810 2710 c-6 -12 -9 -29 -5 -38 4 -15 362 -234 415 -254 28 -10 62
19 58 50 -3 24 -29 42 -208 145 -113 64 -215 117 -227 117 -12 0 -27 -9 -33
-20z"/>
</g>
</svg>
