<svg width="1207" height="540" viewBox="0 0 1207 540" fill="none" xmlns="http://www.w3.org/2000/svg">
<path d="M2.99997 0.333333C1.52721 0.333333 0.333303 1.52724 0.333303 3C0.333303 4.47276 1.52721 5.66667 2.99997 5.66667C4.47273 5.66667 5.66664 4.47276 5.66664 3C5.66664 1.52724 4.47273 0.333333 2.99997 0.333333ZM2.99994 534.333C1.52718 534.333 0.333276 535.527 0.333276 537C0.333276 538.473 1.52718 539.667 2.99994 539.667C4.4727 539.667 5.66661 538.473 5.66661 537C5.66661 535.527 4.4727 534.333 2.99994 534.333ZM2.49997 3L2.49994 537L3.49994 537L3.49997 3L2.49997 3Z" fill="#575757"/>
<path d="M79.4271 3L79.4271 537" stroke="#CBCBCB" stroke-width="0.5"/>
<path d="M378.585 3L378.585 537" stroke="#CBCBCB" stroke-width="0.5"/>
<path d="M678.836 3L678.836 537" stroke="#CBCBCB" stroke-width="0.5"/>
<path d="M979.086 3L979.086 537" stroke="#CBCBCB" stroke-width="0.5"/>
<path d="M227.915 3L227.915 537" stroke="#CBCBCB" stroke-width="0.5"/>
<path d="M528.164 3L528.164 537" stroke="#CBCBCB" stroke-width="0.5"/>
<path d="M828.414 3L828.414 537" stroke="#CBCBCB" stroke-width="0.5"/>
<path d="M1128.66 3L1128.66 537" stroke="#CBCBCB" stroke-width="0.5"/>
<path d="M153.671 3L153.671 537" stroke="#CBCBCB" stroke-width="0.5"/>
<path d="M453.921 3L453.921 537" stroke="#CBCBCB" stroke-width="0.5"/>
<path d="M754.171 3L754.171 537" stroke="#CBCBCB" stroke-width="0.5"/>
<path d="M1054.42 3L1054.42 537" stroke="#CBCBCB" stroke-width="0.5"/>
<path d="M303.25 0.333333C301.777 0.333333 300.583 1.52724 300.583 3C300.583 4.47276 301.777 5.66667 303.25 5.66667C304.723 5.66667 305.917 4.47276 305.917 3C305.917 1.52724 304.723 0.333333 303.25 0.333333ZM303.25 534.333C301.777 534.333 300.583 535.527 300.583 537C300.583 538.473 301.777 539.667 303.25 539.667C304.723 539.667 305.917 538.473 305.917 537C305.917 535.527 304.723 534.333 303.25 534.333ZM302.75 3L302.75 537L303.75 537L303.75 3L302.75 3Z" fill="#575757"/>
<path d="M603.5 0.333333C602.027 0.333333 600.833 1.52724 600.833 3C600.833 4.47276 602.027 5.66667 603.5 5.66667C604.973 5.66667 606.167 4.47276 606.167 3C606.167 1.52724 604.973 0.333333 603.5 0.333333ZM603.5 534.333C602.027 534.333 600.833 535.527 600.833 537C600.833 538.473 602.027 539.667 603.5 539.667C604.973 539.667 606.167 538.473 606.167 537C606.167 535.527 604.973 534.333 603.5 534.333ZM603 3L603 537L604 537L604 3L603 3Z" fill="#575757"/>
<path d="M903.75 0.333333C902.277 0.333333 901.083 1.52724 901.083 3C901.083 4.47276 902.277 5.66667 903.75 5.66667C905.223 5.66667 906.417 4.47276 906.417 3C906.417 1.52724 905.223 0.333333 903.75 0.333333ZM903.75 534.333C902.277 534.333 901.083 535.527 901.083 537C901.083 538.473 902.277 539.667 903.75 539.667C905.223 539.667 906.417 538.473 906.417 537C906.417 535.527 905.223 534.333 903.75 534.333ZM903.25 3L903.25 537L904.25 537L904.25 3L903.25 3Z" fill="#575757"/>
<path d="M1204 0.333333C1202.53 0.333333 1201.33 1.52724 1201.33 3C1201.33 4.47276 1202.53 5.66667 1204 5.66667C1205.47 5.66667 1206.67 4.47276 1206.67 3C1206.67 1.52724 1205.47 0.333333 1204 0.333333ZM1204 534.333C1202.53 534.333 1201.33 535.527 1201.33 537C1201.33 538.473 1202.53 539.667 1204 539.667C1205.47 539.667 1206.67 538.473 1206.67 537C1206.67 535.527 1205.47 534.333 1204 534.333ZM1203.5 3L1203.5 537L1204.5 537L1204.5 3L1203.5 3Z" fill="#575757"/>
</svg>
